<svg width="609" height="138" viewBox="0 0 609 138" fill="none" xmlns="http://www.w3.org/2000/svg">
<path d="M103 0H609V137.9H0L49.7 33.7C59.4 13.1 80.2 0 103 0Z" fill="#F2E500"/>
<path d="M230.2 53.9L230.5 66.3L225.1 96.9H210.6L220.7 40.1H239.8L249.4 71.2L252.1 84.7L252.7 84.5L252.9 70.6L258.3 40H272.6L262.5 96.8H242.2L233 65.8L230.8 53.6L230.2 53.9Z" fill="#030E33"/>
<path d="M318.1 52.3H297.2L295.7 61.2H315.7L313.5 73.4H293.5L291.6 84.6H312.5L310.3 96.9H275.4L285.4 40.2H320.3L318.1 52.3Z" fill="#030E33"/>
<path d="M323.4 40.2H340L345.8 54L347.6 59.6L351.2 54L362 40.2H378.5L378.4 40.7L360.6 62.7L355.6 68.5L358.8 74.9L368.8 96.5L368.7 96.9H352L346.2 83.1L344.4 77.1L340.3 83.2L330 96.9H313.2L313.3 96.5L331.2 74.5L336.5 68.5L333.3 62.6L323.2 40.6V40.2H323.4ZM368.9 96.5L368.8 96.9L368.9 96.5ZM378.6 40.2L378.5 40.7L378.6 40.2Z" fill="#030E33"/>
<path d="M419 40.2L416.8 52.7H403.6L395.8 97H381.3L389.1 52.7H376L378.2 40.2H419Z" fill="#030E33"/>
<path d="M442.3 52.2L471 69.9L469.5 78.5L434.5 96L434.1 95.8L436.6 81.4L454.3 74.3L439.1 67.2L441.7 52.5L442.3 52.2Z" fill="#030E33"/>
</svg>
