<svg width="609" height="138" viewBox="0 0 609 138" fill="none" xmlns="http://www.w3.org/2000/svg">
<path d="M103 0H609V137.9H0L49.7 33.7C59.4 13.1 80.2 0 103 0Z" fill="#F2E500"/>
<path d="M235.2 53.9L235.5 66.3L230.1 96.9H215.6L225.7 40.1H244.8L254.4 71.2L257.1 84.7L257.7 84.5L257.9 70.6L263.3 40H277.6L267.5 96.8H247.2L238 65.8L235.8 53.6L235.2 53.9Z" fill="#030E33"/>
<path d="M342.9 63.9C342.9 84.2 325.8 97.9 307.9 97.9C293.6 97.9 283.1 88.3 283.1 73.3C283.1 53 300.3 39.1 318.3 39.1C332.3 39.2 342.9 49.2 342.9 63.9ZM310.1 84.9C318.6 84.9 328.1 79.8 328.1 65.3C328.1 56.1 322.2 52.3 315.8 52.3C307 52.3 297.8 59 297.8 71.8C297.8 80.5 303.7 84.9 310.1 84.9Z" fill="#030E33"/>
<path d="M392.9 61.4L389.9 70.7L378.4 97.1H358L353.4 40H368.5L370.9 74.9L370.4 87.1H370.9L374.5 74.9L388 46.2H403.8L407.2 75L406.8 87.2H407.4L411.2 75L426 40.1H441.2L416.6 97.2H395.4L393.2 70.7L393.5 61.5H392.9V61.4Z" fill="#030E33"/>
</svg>
