<svg width="609" height="138" viewBox="0 0 609 138" fill="none" xmlns="http://www.w3.org/2000/svg">
<path d="M103 0H609V137.9H0L49.7 33.7C59.4 13.1 80.2 0 103 0Z" fill="#F2E500"/>
<path d="M135.9 52.5L133.3 67.2L115.6 74.3L130.8 81.4L128.2 95.8L127.8 96L98.9 78.5L100.4 69.9L135.3 52.1L135.9 52.5Z" fill="#030E33"/>
<path d="M173.1 96.9H158.8L168.8 40.2H187.7C202.5 40.3 207.7 50.6 205.8 60.8C203.9 70.9 194.8 80.9 180.7 80.9H176L173.1 96.9ZM191.8 60.8C192.6 56.5 190.9 52.2 185.6 52.2H180.7L177.7 69.3H182.6C187.6 69.3 191 65.1 191.8 60.8Z" fill="#030E33"/>
<path d="M253.1 96.9H236.9L229.1 77H227.2L223.7 96.9H209.2L219.3 40.1H239.2C247.5 40.1 253.7 42.6 256.1 48.5C257.4 51.7 257.6 55.3 256.9 58.9C255.5 65.6 250.7 71.9 243 74.6L253.1 96.9ZM234.7 65C239.8 65 242.7 61.2 242.7 57.8C242.7 55.1 240.9 52.5 236.9 52.5H231.1L228.9 65H234.7Z" fill="#030E33"/>
<path d="M304 52.3H283.1L281.6 61.2H301.6L299.4 73.4H279.4L277.5 84.6H298.4L296.2 96.9H261.3L271.3 40.2H306.2L304 52.3Z" fill="#030E33"/>
<path d="M331.6 88.8L335.2 79.1L353.9 40.2H369L339.8 97.3H319.8L310.4 40.2H325.8L330.9 79.2L331 88.8H331.6Z" fill="#030E33"/>
<path d="M375 39.9H389.4L379.3 96.9H365L375 39.9Z" fill="#030E33"/>
<path d="M451.8 63.9C451.8 84.2 434.7 97.9 416.8 97.9C402.5 97.9 392 88.3 392 73.3C392 53 409.2 39.1 427.2 39.1C441.2 39.2 451.8 49.2 451.8 63.9ZM419 84.9C427.5 84.9 437 79.8 437 65.3C437 56.1 431.1 52.3 424.7 52.3C415.9 52.3 406.7 59 406.7 71.8C406.7 80.5 412.6 84.9 419 84.9Z" fill="#030E33"/>
<path d="M481.7 40.2L474.9 78.6C474.1 83.2 477.3 85.4 480.9 85.3C484.5 85.2 488.5 82.9 489.2 78.6L496 40.2H510.5L503.7 78.6C501.4 91.3 489.4 97.6 478.5 97.6C467.6 97.6 458.1 91.2 460.3 78.6L467.1 40.2H481.7Z" fill="#030E33"/>
<path d="M521.9 78.8C525 84.6 529.2 85 531.7 85C534.9 85.1 537.5 83 538.2 80.3C539.2 76.2 535.4 74.5 532.2 73.6H532.3C526.5 72.1 515.8 68.1 518.1 56.1C520.5 44.1 531.2 39.3 540.3 39.3C547.1 39.3 553.4 42.5 556.3 50.1L545.8 56C544.1 53.1 541.9 51.8 538.7 51.8C535.7 51.8 533 53 532.3 56.1C531.6 59.4 535.5 60.5 538 61.2C546.5 63.6 555.3 67.8 552.5 81.1C549.9 92.7 538.8 97.8 529.3 97.8C523.1 97.8 515 95.1 511.4 85.6L521.9 78.8Z" fill="#030E33"/>
</svg>
